# AST/ASF file generated using VICON BodyLanguage
# -----------------------------------------------
:version 1.10
:name VICON
:units
  mass 1.0
  length 0.45
  angle deg
:documentation
   .ast/.asf automatically generated from VICON data using
   VICON BodyBuilder and BodyLanguage model FoxedUp or BRILLIANT.MOD
:root
   order TX TY TZ RX RY RZ
   axis XYZ
   position 0 0 0  
   orientation 0 0 0 
:bonedata
  begin
     id 1 
     name lhipjoint
     direction 0.682418 -0.694059 0.22932 
     length 2.25561 
     axis 0 0 0  XYZ
  end
  begin
     id 2 
     name lfemur
     direction 0.34202 -0.939693 0  
     length 6.96448  
     axis 0 0 20  XYZ
    dof rx ry rz
    limits (-160.0 20.0)
           (-70.0 70.0)
           (-60.0 70.0)
  end
  begin
     id 3 
     name ltibia
     direction 0.34202 -0.939693 0   
     length 6.88553   
     axis 0 0 20   XYZ
    dof rx
    limits (-10.0 170.0)
  end
  begin
     id 4 
     name lfoot
     direction 0.0723587 -0.198804 0.977364   
     length 1.88518   
     axis -90 7.62852e-016 20   XYZ
    dof rx rz
    limits (-45.0 90.0)
           (-70.0 20.0)
  end
  begin
     id 5 
     name ltoes
     direction 1.53558e-011 -4.21962e-011 1   
     length 0.952124   
     axis -90 7.62852e-016 20   XYZ
    dof rx
    limits (-90.0 20.0)
  end
  begin
     id 6 
     name rhipjoint
     direction -0.657603 -0.71533 0.236348   
     length 2.18854  
     axis 0 0 0  XYZ 
  end
  begin
     id 7 
     name rfemur
     direction -0.34202 -0.939693 0   
     length 6.86686   
     axis 0 0 -20   XYZ
    dof rx ry rz
    limits (-160.0 20.0)
           (-70.0 70.0)
           (-70.0 60.0)
  end
  begin
     id 8 
     name rtibia
     direction -0.34202 -0.939693 0   
     length 6.59503   
     axis 0 0 -20   XYZ
    dof rx
    limits (-10.0 170.0)
 end
 begin
     id 9 
     name rfoot
     direction -0.101977 -0.280179 0.954516   
     length 1.93723  
     axis -90 -7.62852e-016 -20   XYZ
    dof rx rz
    limits (-45.0 90.0)
           (-20.0 70.0)
  end
  begin
     id 10 
     name rtoes
     direction -1.53564e-011 -4.21897e-011 1   
     length 0.970315   
     axis -90 -7.62852e-016 -20   XYZ
    dof rx
    limits (-90.0 20.0)
  end
  begin
     id 11 
     name lowerback
     direction -0.0339559 0.999421 -0.00235966   
     length 1.88543   
     axis 0 0 0   XYZ
    dof rx ry rz
    limits (-20.0 45.0)
           (-30.0 30.0)
           (-30.0 30.0)
  end
  begin
     id 12 
     name upperback
     direction 0.00401003 0.999739 0.0224689   
     length 1.8856   
     axis 0 0 0   XYZ
    dof rx ry rz
    limits (-20.0 45.0)
           (-30.0 30.0)
           (-30.0 30.0)
  end
  begin
     id 13 
     name thorax
     direction 0.0198619 0.999546 0.0226536   
     length 1.88352   
     axis 0 0 0   XYZ
    dof rx ry rz
    limits (-20.0 45.0)
           (-30.0 30.0)
           (-30.0 30.0)
  end
  begin
     id 14 
     name lowerneck
     direction -0.0461848 0.998632 0.0245198   
     length 1.34895   
     axis 0 0 0   XYZ
    dof rx ry rz
    limits (-20.0 45.0)
           (-30.0 30.0)
           (-30.0 30.0)
  end
  begin
     id 15 
     name upperneck
     direction -0.0180627 0.994724 -0.100984   
     length 1.35214   
     axis 0 0 0   XYZ
    dof rx ry rz
    limits (-20.0 45.0)
           (-30.0 30.0)
           (-30.0 30.0)
  end
  begin
     id 16
     name head
     direction -0.00374772 0.999293 -0.037403  
     length 1.3568  
     axis 0 0 0   XYZ
    dof rx ry rz
    limits (-20.0 45.0)
           (-30.0 30.0)
           (-30.0 30.0)
  end
  begin
     id 17 
     name lclavicle
     direction 0.971773 0.191119 0.138311  
     length 2.84954  
     axis 0 0 0   XYZ
    dof ry rz
    limits (-20.0 10.0)
           (0.0 20.0)
  end
  begin
     id 18 
     name lhumerus
     direction 1 -4.4897e-011 -2.43761e-027   
     length 4.40919   
     axis 180 -30 -90   XYZ
    dof rx ry rz
    limits (-60.0 90.0)
           (-90.0 90.0)
           (-90.0 90.0)
  end
  begin
     id 19
     name lradius
     direction 1 -4.4896e-011 -9.1621e-027   
     length 3.03857   
     axis 180 -30 -90   XYZ
    dof rx
    limits (-10.0 170.0)
  end
  begin
     id 20
     name lwrist
     direction 1 -4.4896e-011 -1.41363e-026   
     length 1.51928   
     axis 1.07133e-014 90 90   XYZ
    dof ry
    limits (-180.0 0.0)
 end
  begin
     id 21 
     name lhand
     direction 1 -4.48978e-011 -2.82725e-026   
     length 0.523208   
     axis 1.80403e-014 90 90   XYZ
    dof rx rz
    limits (-90.0 90.0)
           (-45.0 45.0)
  end
  begin
     id 22 
     name lfingers
     direction 1 -4.48977e-011 -5.6545e-026   
     length 0.421824   
     axis 3.60806e-014 90 90   XYZ
    dof rx
    limits (0.0 90.0)
  end
  begin
     id 23
     name lthumb
     direction 0.707107 -6.34962e-011 0.707107   
     length 0.605657   
     axis -90 45 2.85299e-015   XYZ
    dof rx rz
    limits (-45.0 45.0)
           (-45.0 45.0)
  end
  begin
     id 24 
     name rclavicle
     direction -0.957247 0.24311 0.156766   
     length 3.12406  
     axis 0 0 0   XYZ 
    dof ry rz
    limits (-10.0 20.0)
           (-20.0 0.0)
  end
  begin
     id 25 
     name rhumerus
     direction -1 -4.48964e-011 -1.70632e-027  
     length 4.61969   
     axis 180 30 90   XYZ
    dof rx ry rz
    limits (-90.0 60.0)
           (-90.0 90.0)
           (-90.0 90.0)
  end
  begin
     id 26 
     name rradius
     direction -1 -4.48966e-011 -6.60395e-027   
     length 3.09382   
     axis 180 30 90   XYZ
    dof rx
    limits (-10.0 170.0)
  end
  begin
     id 27 
     name rwrist
     direction -1 -4.48963e-011 -1.41363e-026   
     length 1.54691   
     axis 1.07133e-014 -90 -90   XYZ
    dof ry
    limits (-180.0 0.0)
  end
  begin
     id 28
     name rhand
     direction -1 -4.49013e-011 -2.82725e-026   
     length 0.500896   
     axis 1.80403e-014 -90 -90   XYZ
    dof rx rz
    limits (-90.0 90.0)
           (-45.0 45.0)
  end
  begin
     id 29
     name rfingers
     direction -1 -4.48902e-011 -5.6545e-026   
     length 0.403835   
     axis 3.60806e-014 -90 -90   XYZ
    dof rx
    limits (0.0 90.0)
  end
  begin
     id 30
     name rthumb
     direction -0.707107 -6.34953e-011 0.707107   
     length 0.579829   
     axis -90 -45 -2.85299e-015   XYZ
    dof rx rz
    limits (-45.0 45.0)
           (-45.0 45.0)
  end
:hierarchy
  begin
    root lhipjoint rhipjoint lowerback
    lhipjoint lfemur
    lfemur ltibia
    ltibia lfoot
    lfoot ltoes
    rhipjoint rfemur
    rfemur rtibia
    rtibia rfoot
    rfoot rtoes
    lowerback upperback
    upperback thorax
    thorax lowerneck lclavicle rclavicle
    lowerneck upperneck
    upperneck head
    lclavicle lhumerus
    lhumerus lradius
    lradius lwrist
    lwrist lhand lthumb
    lhand lfingers
    rclavicle rhumerus
    rhumerus rradius
    rradius rwrist
    rwrist rhand rthumb
    rhand rfingers
  end

#!OML:ASF E:\madness\Project 1\Capture day 1\Session 1\Female1.ASF
:FULLY-SPECIFIED
:DEGREES
214
root 7.22253 16.5041 1.66939 8.20528 -28.5436 2.69058
lowerback -10.6673 3.41072 -2.25422
upperback -6.16101 4.65385 -0.325745
thorax -0.606458 2.35664 1.37742
lowerneck 2.56459 10.6305 7.08914
upperneck 13.8959 14.8788 -4.94173
head 4.67351 7.46767 -2.04961
rclavicle -1.12363e-013 -7.35503e-015
rhumerus -49.292 -1.4558 -82.4908
rradius 51.6865
rwrist 3.75041
rhand -10.9114 -47.7911
rfingers 7.12502
rthumb 15.1058 -77.2199
lclavicle -1.12363e-013 -7.35503e-015
lhumerus -58.56 7.73961 75.1106
lradius 52.7454
lwrist -8.41059
lhand -18.4994 -13.9996
lfingers 7.12502
lthumb 7.78831 15.837
rfemur 8.85416 -8.89125 19.3426
rtibia 8.23301
rfoot -26.2487 -38.9248
rtoes 39.2272
lfemur -11.9084 -16.876 -22.7197
ltibia 12.4765
lfoot -8.86986 1.4521
ltoes 18.7343
215
root 7.21793 16.5078 1.68413 8.28693 -28.8907 2.58944
lowerback -10.7469 3.32254 -2.35159
upperback -6.1486 4.54552 -0.186447
thorax -0.565782 2.30621 1.57039
lowerneck 2.68988 10.6055 6.51372
upperneck 13.5814 14.813 -4.73991
head 4.49381 7.42118 -1.92917
rclavicle -5.81445e-015 -1.0138e-014
rhumerus -49.3643 -0.920413 -82.6528
rradius 52.0176
rwrist 3.16607
rhand -7.60908 -48.6478
rfingers 7.12502
rthumb 18.2849 -77.8084
lclavicle -5.81445e-015 -1.0138e-014
lhumerus -58.7968 8.06827 75.1105
lradius 52.9244
lwrist -8.72539
lhand -19.3086 -13.6059
lfingers 7.12502
lthumb 7.00729 16.2581
rfemur 8.83001 -8.47696 19.401
rtibia 8.17164
rfoot -26.197 -39.0475
rtoes 39.1795
lfemur -11.9488 -16.687 -22.7023
ltibia 12.5487
lfoot -8.89215 1.7576
ltoes 16.3796
216
root 7.21919 16.5052 1.69816 8.36172 -29.3531 2.52256
lowerback -10.7921 3.32278 -2.36734
upperback -6.16922 4.54596 -0.137708
thorax -0.568334 2.30724 1.63142
lowerneck 2.89353 10.4296 6.39103
upperneck 13.3099 14.5712 -4.75972
head 4.3548 7.30087 -1.95132
rclavicle -2.8302e-014 6.75868e-015
rhumerus -49.5269 -0.609722 -82.8616
rradius 52.4511
rwrist 2.55311
rhand -7.04835 -49.0989
rfingers 7.12502
rthumb 18.8243 -78.2081
lclavicle -2.8302e-014 6.75868e-015
lhumerus -59.0175 8.01678 75.1989
lradius 53.2312
lwrist -8.66607
lhand -19.7785 -13.1989
lfingers 7.12502
lthumb 6.55364 16.6797
rfemur 8.80179 -7.95204 19.3678
rtibia 8.08635
rfoot -26.106 -39.2101
rtoes 39.0759
lfemur -11.8627 -16.8116 -22.631
ltibia 12.6058
lfoot -9.00722 2.18095
ltoes 18.0036
217
root 7.2229 16.506 1.71598 8.31943 -29.9387 2.4996
lowerback -10.8178 3.33448 -2.39406
upperback -6.11468 4.56416 -0.102356
thorax -0.503484 2.31588 1.68829
lowerneck 3.01619 10.2263 6.86692
upperneck 13.1051 14.3424 -5.21765
head 4.32468 7.19382 -2.17978
rclavicle 5.22555e-014 1.23246e-014
rhumerus -49.5961 -0.394916 -83.0787
rradius 52.835
rwrist 1.94336
rhand -7.53994 -49.3912
rfingers 7.12502
rthumb 18.3515 -78.5455
lclavicle 5.22555e-014 1.23246e-014
lhumerus -59.1029 8.06958 75.1393
lradius 53.4675
lwrist -8.58134
lhand -19.657 -13.2429
lfingers 7.12502
lthumb 6.67091 16.6321
rfemur 8.925 -7.3038 19.218
rtibia 7.89333
rfoot -25.9757 -39.5479
rtoes 38.5693
lfemur -11.6946 -16.8303 -22.7133
ltibia 12.6906
lfoot -9.00555 2.6974
ltoes 18.392
218
root 7.22073 16.5057 1.72924 8.26289 -30.397 2.4368
lowerback -10.8137 3.32527 -2.45139
upperback -6.0455 4.5577 -0.0734824
thorax -0.440331 2.31294 1.75178
lowerneck 2.85315 10.1116 7.2251
upperneck 13.1867 14.2071 -5.45263
head 4.40926 7.12917 -2.29682
rclavicle -3.79679e-014 -7.55382e-015
rhumerus -49.6451 -0.654899 -82.9842
rradius 53.0327
rwrist 2.36756
rhand -6.60458 -48.7013
rfingers 7.12502
rthumb 19.2511 -77.7684
lclavicle -3.79679e-014 -7.55382e-015
lhumerus -59.1104 7.97318 75.1373
lradius 53.6598
lwrist -8.35336
lhand -19.7371 -13.1307
lfingers 7.12502
lthumb 6.59366 16.7466
rfemur 9.00651 -6.78404 19.1881
rtibia 7.88228
rfoot -25.9313 -39.7719
rtoes 38.3127
lfemur -11.4792 -16.7107 -22.7586
ltibia 12.6851
lfoot -8.92814 3.10946
ltoes 17.8751
219
root 7.21693 16.5053 1.73658 8.26166 -30.667 2.38281
lowerback -10.7027 3.23956 -2.49701
upperback -6.09079 4.44391 -0.0825685
thorax -0.545232 2.25842 1.74795
lowerneck 2.79273 10.0805 6.87771
upperneck 13.19 14.0918 -4.88341
head 4.34865 7.07858 -2.08141
rclavicle 2.00773e-014 9.34288e-015
rhumerus -49.8423 -0.811903 -82.9884
rradius 53.3136
rwrist 2.86089
rhand -7.05826 -47.8829
rfingers 7.12502
rthumb 18.8148 -76.993
lclavicle 2.00773e-014 9.34288e-015
lhumerus -59.2945 7.77036 75.1061
lradius 53.9276
lwrist -8.02013
lhand -19.7928 -12.968
lfingers 7.12502
lthumb 6.53988 16.911
rfemur 9.03488 -6.45243 19.2127
rtibia 7.8363
rfoot -26.0345 -39.924
rtoes 38.3079
lfemur -11.3895 -16.584 -22.7515
ltibia 12.6886
lfoot -8.9291 3.28878
ltoes 17.6968
220
root 7.21569 16.5039 1.746 8.23455 -30.9121 2.33986
lowerback -10.5245 3.13205 -2.49558
upperback -6.15121 4.295 -0.0730531
thorax -0.698346 2.18627 1.72964
lowerneck 2.8938 10.051 6.2533
upperneck 13.0154 13.9475 -4.02591
head 4.16741 7.01682 -1.75739
rclavicle -1.88845e-014 3.77691e-015
rhumerus -50.0739 -0.522775 -83.148
rradius 53.6944
rwrist 2.87984
rhand -9.26703 -47.4292
rfingers 7.12502
rthumb 16.6894 -76.7317
lclavicle -1.88845e-014 3.77691e-015
lhumerus -59.5473 7.80491 74.9841
lradius 54.1355
lwrist -7.9075
lhand -19.8929 -13.104
lfingers 7.12502
lthumb 6.44325 16.778
rfemur 9.04941 -6.1498 19.2124
rtibia 7.86681
rfoot -26.5479 -40.0261
rtoes 38.3343
lfemur -11.2762 -16.6255 -22.7633
ltibia 12.6729
lfoot -8.923 3.55654
ltoes 17.0325
221
root 7.22006 16.5022 1.75733 8.2505 -31.1673 2.26932
lowerback -10.4789 3.13831 -2.4583
upperback -6.12969 4.29909 -0.0471165
thorax -0.699942 2.18758 1.73403
lowerneck 2.94099 9.96159 5.83327
upperneck 12.5578 13.7404 -3.41456
head 4.38131 6.93543 -1.68402
rclavicle -3.75206e-015 4.37326e-015
rhumerus -50.2296 -0.492896 -83.0367
rradius 54.0273
rwrist 2.94105
rhand -10.4237 -47.1314
rfingers 7.12502
rthumb 15.5756 -76.5242
lclavicle -3.75206e-015 4.37326e-015
lhumerus -59.5783 7.72446 75.1712
lradius 54.3035
lwrist -7.72654
lhand -20.2815 -13.2792
lfingers 7.12502
lthumb 6.06802 16.6139
rfemur 8.99077 -5.83822 19.2181
rtibia 7.9699
rfoot -26.7316 -40.0705
rtoes 38.7162
lfemur -11.2015 -16.6637 -22.7586
ltibia 12.6446
lfoot -8.84815 3.84022
ltoes 16.8675
222
root 7.22583 16.5014 1.7688 8.32256 -31.4292 2.18905
lowerback -10.5721 3.16705 -2.42489
upperback -6.07613 4.3369 -0.0156661
thorax -0.59513 2.20418 1.75931
lowerneck 2.62002 9.75601 5.79684
upperneck 12.7728 13.4602 -3.46899
head 4.50643 6.78799 -1.68731
rclavicle -6.83819e-014 -1.90833e-014
rhumerus -50.3674 -0.582662 -82.8999
rradius 54.3788
rwrist 2.88161
rhand -10.6302 -46.9642
rfingers 7.12502
rthumb 15.3767 -76.3724
lclavicle -6.83819e-014 -1.90833e-014
lhumerus -59.5145 7.63454 75.4088
lradius 54.4719
lwrist -7.65086
lhand -20.5092 -13.2433
lfingers 7.12502
lthumb 5.84824 16.656
rfemur 8.90663 -5.51694 19.2298
rtibia 8.01721
rfoot -26.495 -40.2158
rtoes 38.7714
lfemur -11.1908 -16.521 -22.7478
ltibia 12.6479
lfoot -8.8244 3.91028
ltoes 17.0779
223
root 7.22693 16.5036 1.78116 8.36986 -31.7484 2.1408
lowerback -10.6567 3.12263 -2.43251
upperback -6.04732 4.27989 0.0338563
thorax -0.520994 2.17499 1.81583
lowerneck 1.95295 9.56546 6.04805
upperneck 13.7409 13.2694 -4.01256
head 4.48937 6.65283 -1.68807
rclavicle -1.58531e-014 -3.18055e-015
rhumerus -50.4915 -0.402536 -82.9344
rradius 54.7467
rwrist 2.65974
rhand -10.8435 -47.1185
rfingers 7.12502
rthumb 15.1712 -76.5424
lclavicle -1.58531e-014 -3.18055e-015
lhumerus -59.6081 7.61682 75.4693
lradius 54.6979
lwrist -7.69815
lhand -20.5191 -12.9105
lfingers 7.12502
lthumb 5.83864 16.9891
rfemur 8.88798 -5.1372 19.2097
rtibia 7.97464
rfoot -26.499 -40.4386
rtoes 38.299
lfemur -11.1864 -16.3248 -22.7869
ltibia 12.7015
lfoot -8.81842 4.0399
ltoes 16.7043
224
root 7.22686 16.5065 1.793 8.37356 -32.0562 2.13437
lowerback -10.6555 3.09149 -2.46092
upperback -6.05434 4.24001 0.0410309
thorax -0.529788 2.15563 1.83497
lowerneck 1.63313 9.44215 6.0887
upperneck 14.0542 13.1078 -4.09467
head 4.637 6.56355 -1.70235
rclavicle -1.0871e-013 -1.5704e-014
rhumerus -50.6402 -0.362214 -82.9412
rradius 54.9977
rwrist 2.69764
rhand -10.9462 -47.2857
rfingers 7.12502
rthumb 15.0723 -76.717
lclavicle -1.0871e-013 -1.5704e-014
lhumerus -59.6992 7.51908 75.4962
lradius 54.8901
lwrist -7.54659
lhand -20.3077 -13.123
lfingers 7.12502
lthumb 6.04273 16.7708
rfemur 8.92595 -4.77017 19.1485
rtibia 7.86695
rfoot -26.5315 -40.5702
rtoes 38.1801
lfemur -11.1864 -16.2537 -22.8573
ltibia 12.7835
lfoot -8.7001 4.29552
ltoes 16.5815
225
root 7.22865 16.5074 1.8045 8.385 -32.3882 2.1514
lowerback -10.6766 3.10274 -2.45281
upperback -6.05941 4.25406 -0.0196208
thorax -0.518918 2.16087 1.7704
lowerneck 1.94134 9.29792 5.76223
upperneck 13.7132 12.8869 -3.86288
head 4.43331 6.45631 -1.62276
rclavicle -1.34677e-013 -2.8625e-014
rhumerus -50.8358 -0.467163 -82.982
rradius 55.1758
rwrist 2.86895
rhand -10.9932 -46.7322
rfingers 7.12502
rthumb 15.027 -76.1669
lclavicle -1.34677e-013 -2.8625e-014
lhumerus -59.6681 7.5535 75.419
lradius 54.9694
lwrist -7.49465
lhand -20.0159 -13.9029
lfingers 7.12502
lthumb 6.32444 15.9827
rfemur 8.95782 -4.38073 19.0487
rtibia 7.72043
rfoot -26.383 -40.7519
rtoes 37.9475
lfemur -11.1671 -16.3006 -22.9218
ltibia 12.8636
lfoot -8.65106 4.61508
ltoes 16.9822
226
root 7.23224 16.5078 1.81504 8.45506 -32.7745 2.15077
lowerback -10.7687 3.08486 -2.42393
upperback -6.05603 4.22902 -0.0723868
thorax -0.457812 2.14519 1.70356
lowerneck 1.75964 9.06606 5.85847
upperneck 13.8025 12.5401 -3.68197
head 4.46736 6.29448 -1.58984
rclavicle 4.56956e-014 -5.1684e-015
rhumerus -50.9705 -0.300033 -83.1775
rradius 55.4512
rwrist 2.44332
rhand -10.9734 -46.4239
rfingers 7.12502
rthumb 15.0461 -75.8572
lclavicle 4.56956e-014 -5.1684e-015
lhumerus -59.7107 7.56234 75.3619
lradius 55.1442
lwrist -7.51562
lhand -20.0284 -14.1556
lfingers 7.12502
lthumb 6.31243 15.7303
rfemur 8.8804 -3.942 18.9567
rtibia 7.64602
rfoot -26.2223 -40.9832
rtoes 37.6945
lfemur -11.1717 -16.3176 -22.956
ltibia 12.8977
lfoot -8.69908 4.98453
ltoes 17.0186
